{"title":"A Touch Of Cloth S01-S03","uid":12110799,"size":2007170254,"categoryP":"video","categoryS":"tv_shows","magnet":"?xt=urn:btih:b5f44a64495eed23b47a27d6d2f2f85353b4d6b7&amp;dn=A+Touch+Of+Cloth+S01-S03&amp;tr=udp%3A%2F%2Ftracker.openbittorrent.com%3A80&amp;tr=udp%3A%2F%2Fopen.demonii.com%3A1337&amp;tr=udp%3A%2F%2Ftracker.coppersurfer.tk%3A6969&amp;tr=udp%3A%2F%2Fexodus.desync.com%3A6969","seeders":1,"leechers":0,"uploader":"RedBaron58","files":3,"time":1436566013,"description":"A Touch of Cloth S01- S03 DVDRip x264 mp4\n  &lt;a href=&quot;\nhttp://www.imdb.com/title/tt2240991/&quot; rel=&quot;nofollow&quot; target=&quot;_NEW&quot;&gt;\nhttp://www.imdb.com/title/tt2240991/&lt;/a&gt;\n\nTrailer:\n\n\n\nThank you for your kind comments and feedback on my other torrents, your feedback is welcome.\n\n\nAbout the Series:\nA parody of British detective and crime dramas, centred around Jack Cloth, a police detective with personal \nissues, and Anne Oldman, his bisexual colleague.\nBooze-addled and widowed loner, DCI Jack Cloth continues his struggle to hold himself together while \nsolving grisly murders and suffering from the death of his wife.\n\nThis is the DVD boxset version where both episodes in each series are one continuous show of 90 minutes.\n\n\nI hope you enjoy.\n\n\nTechnical: (All are encoded to the same settings)\n\nGeneral\nComplete name                            : H:A Touch Of Cloth S01-S03A Touch Of Cloth S01E01-E02 x264 RB58.mp4\nFormat                                   : MPEG-4\nFormat profile                           : Base Media / Version 2\nCodec ID                                 : mp42\nFile size                                : 647 MiB\nDuration                                 : 1h 30mn\nOverall bit rate mode                    : Variable\nOverall bit rate                         : 1 000 Kbps\nEncoded date                             : UTC 2015-06-22 14:18:40\nTagged date                              : UTC 2015-06-22 14:41:56\nWriting application                      : HandBrake 0.9.9 2013052900\n\nVideo\nID                                       : 1\nFormat                                   : AVC\nFormat/Info                              : Advanced Video Codec\nFormat profile                           : &lt;a class=&quot;__cf_email__&quot; href=&quot;/cdn-cgi/l/email-protection&quot; data-cfemail=&quot;cc81ada5a28c80f8e2fc&quot;&gt;[email&amp;#160;protected]&lt;/a&gt;&lt;script data-cfhash='f9e31' type=&quot;text/javascript&quot;&gt;\n/* &lt;![CDATA[ */!function(){try{var t=&quot;currentScript&quot;in document?document.currentScript:function(){for(var t=document.getElementsByTagName(&quot;script&quot;),e=t.length;e--;)if(t[e].getAttribute(&quot;data-cfhash&quot;))return t[e]}();if(t&amp;&amp;t.previousSibling){var e,r,n,i,c=t.previousSibling,a=c.getAttribute(&quot;data-cfemail&quot;);if(a){for(e=&quot;&quot;,r=parseInt(a.substr(0,2),16),n=2;a.length-n;n+=2)i=parseInt(a.substr(n,2),16)^r,e+=String.fromCharCode(i);e=document.createTextNode(e),c.parentNode.replaceChild(e,c)}t.parentNode.removeChild(t);}}catch(u){}}()/* ]]&gt; */&lt;/script&gt;\nFormat settings, CABAC                   : Yes\nFormat settings, ReFrames                : 4 frames\nCodec ID                                 : avc1\nCodec ID/Info                            : Advanced Video Coding\nDuration                                 : 1h 30mn\nBit rate mode                            : Variable\nBit rate                                 : 900 Kbps\nWidth                                    : 720 pixels\nHeight                                   : 576 pixels\nDisplay aspect ratio                     : 16:9\nFrame rate mode                          : Constant\nFrame rate                               : 25.000 fps\nStandard                                 : PAL\nColor space                              : YUV\nChroma subsampling                       : 4:2:0\nBit depth                                : 8 bits\nScan type                                : Progressive\nBits/(Pixel*Frame)                       : 0.087\nStream size                              : 583 MiB (90%)\nWriting library                          : x264 core 130 r2273 b3065e6\nEncoding settings                        : cabac=1 / ref=1 / deblock=1:0:0\nEncoded date                             : UTC 2015-06-22 14:18:40\nTagged date                              : UTC 2015-06-22 14:41:56\nColor primaries                          : BT.601 PAL\nTransfer characteristics                 : BT.709\nMatrix coefficients                      : BT.601\n\nAudio\nID                                       : 2\nFormat                                   : AAC\nFormat/Info                              : Advanced Audio Codec\nFormat profile                           : LC\nCodec ID                                 : 40\nDuration                                 : 1h 30mn\nBit rate mode                            : Variable\nBit rate                                 : 96.0 Kbps\nMaximum bit rate                         : 167 Kbps\nChannel(s)                               : 2 channels\nChannel positions                        : Front: L R\nSampling rate                            : 48.0 KHz\nCompression mode                         : Lossy\nDelay relative to video                  : 80ms\nStream size                              : 62.0 MiB (10%)\nLanguage                                 : English\nEncoded date                             : UTC 2015-06-22 14:18:40\nTagged date                              : UTC 2015-06-22 14:41:55","torrent":{"xt":"urn:btih:b5f44a64495eed23b47a27d6d2f2f85353b4d6b7","amp;dn":"A+Touch+Of+Cloth+S01-S03","amp;tr":["udp%3A%2F%2Ftracker.openbittorrent.com%3A80","udp%3A%2F%2Fopen.demonii.com%3A1337","udp%3A%2F%2Ftracker.coppersurfer.tk%3A6969","udp%3A%2F%2Fexodus.desync.com%3A6969"],"infoHash":"b5f44a64495eed23b47a27d6d2f2f85353b4d6b7","infoHashBuffer":{"type":"Buffer","data":[181,244,74,100,73,94,237,35,180,122,39,214,210,242,248,83,83,180,214,183]},"announce":[],"urlList":[]}}